<svg width="289" height="139" viewBox="0 0 289 139" fill="none" xmlns="http://www.w3.org/2000/svg">
<path fill-rule="evenodd" clip-rule="evenodd" d="M193.875 7.89629V76.0938C193.875 77.1695 192.998 78.0469 191.922 78.0469H123.657C124.061 76.2775 124.264 74.4684 124.263 72.6537C124.263 59.3236 113.455 48.5158 100.125 48.5158V35.9264C100.124 35.4399 100.305 34.9705 100.632 34.6107C100.959 34.2509 101.41 34.0266 101.894 33.982L125.451 31.7533L153.546 7.03262C154.464 6.225 155.573 5.94336 156.796 5.94336H191.922C192.998 5.94316 193.875 6.82051 193.875 7.89629ZM162.17 53.1535C160.585 52.7289 158.939 53.6807 158.514 55.2658L157.352 59.6021C156.921 61.2117 157.915 63.0324 159.614 63.2902L176.977 65.9264C178.463 66.152 179.727 65.3461 180.382 64.0383L181.544 61.7182C182.371 60.0666 181.146 58.2377 179.533 57.8059L162.17 53.1535ZM188.565 31.6072C188.658 31.6176 189.077 22.6254 189.087 22.0656C189.111 20.6875 188.289 19.4154 187.02 18.883C186.332 18.5945 185.847 18.6248 185.139 18.6248C184.097 18.6223 183.089 18.9915 182.296 19.666C180.99 20.7752 180.873 21.9111 180.629 23.4072C180.477 24.3243 180.62 25.2661 181.038 26.0963C181.457 26.9266 182.128 27.6024 182.955 28.026C183.972 28.5473 184.962 28.5086 186.074 28.5691C186.042 29.0461 186.006 29.5229 185.969 29.9994L184.259 29.8445C181.932 29.6338 179.859 31.2676 179.52 33.5754C178.487 40.6018 175.173 46.4373 173.867 53.457L180.241 55.1648C180.989 55.3659 181.689 55.7139 182.301 56.1887C183.897 46.2523 187.408 44.1502 188.565 31.6072ZM139.35 69.8438L144.512 60.9031C144.692 60.5926 144.774 60.2852 144.774 59.9266V49.7959C144.774 49.258 144.582 48.7951 144.202 48.4148L139.684 43.8971C139.504 43.7201 139.362 43.5084 139.266 43.2748L137.136 38.2244C136.824 37.485 136.139 37.0301 135.337 37.0301H131.871L130.466 38.2662V62.8119C130.466 66.6813 133.628 69.8432 137.497 69.8432H139.35V69.8438ZM141.193 33.7154L154.686 47.2082C154.944 47.4572 155.289 47.5951 155.647 47.5919C156.006 47.5888 156.349 47.445 156.602 47.1916C156.856 46.9381 157 46.5952 157.003 46.2367C157.006 45.8782 156.868 45.5329 156.619 45.275L143.126 31.782C142.869 31.5316 142.523 31.3927 142.164 31.3953C141.804 31.3978 141.46 31.5417 141.206 31.7957C140.952 32.0498 140.809 32.3936 140.806 32.7528C140.804 33.112 140.943 33.4578 141.193 33.7154ZM148.686 45.0752L143.326 39.7152L141.501 41.54L141.726 42.0721L146.707 47.0537L148.686 45.0752ZM100.125 94.0572C111.946 94.0572 121.529 84.4744 121.529 72.6537C121.529 60.833 111.946 51.2502 100.125 51.2502V63.8205C105.003 63.8205 108.958 67.7754 108.958 72.6535C108.958 77.5316 105.003 81.4865 100.125 81.4865V94.0572ZM100.125 78.7522C103.494 78.7522 106.224 76.0221 106.224 72.6535C106.224 69.2852 103.493 66.5549 100.125 66.5549V78.7522ZM191.922 11.4119H156.848L127.731 37.0307V62.8127C127.731 68.1912 132.118 72.5783 137.497 72.5783H191.922V11.4119Z" fill="black"/>
<path d="M0.752 133V116.2H6.488C7.832 116.2 8.936 116.424 9.8 116.872C10.664 117.32 11.304 117.92 11.72 118.672C12.136 119.424 12.344 120.28 12.344 121.24C12.344 122.152 12.136 122.992 11.72 123.76C11.32 124.512 10.688 125.12 9.824 125.584C8.96 126.032 7.848 126.256 6.488 126.256H3.152V133H0.752ZM3.152 124.264H6.392C7.656 124.264 8.552 123.992 9.08 123.448C9.624 122.888 9.896 122.152 9.896 121.24C9.896 120.264 9.624 119.512 9.08 118.984C8.552 118.456 7.656 118.192 6.392 118.192H3.152V124.264ZM14.9797 133V120.904H17.3797V133H14.9797ZM16.2037 118.624C15.7397 118.624 15.3557 118.48 15.0517 118.192C14.7637 117.904 14.6197 117.536 14.6197 117.088C14.6197 116.656 14.7637 116.304 15.0517 116.032C15.3557 115.744 15.7397 115.6 16.2037 115.6C16.6517 115.6 17.0277 115.744 17.3317 116.032C17.6357 116.304 17.7877 116.656 17.7877 117.088C17.7877 117.536 17.6357 117.904 17.3317 118.192C17.0277 118.48 16.6517 118.624 16.2037 118.624ZM26.4037 133.288C25.2357 133.288 24.1957 133.024 23.2837 132.496C22.3717 131.952 21.6517 131.208 21.1237 130.264C20.6117 129.32 20.3557 128.224 20.3557 126.976C20.3557 125.712 20.6117 124.608 21.1237 123.664C21.6517 122.704 22.3717 121.96 23.2837 121.432C24.1957 120.888 25.2357 120.616 26.4037 120.616C27.8757 120.616 29.1077 121 30.0997 121.768C31.0917 122.536 31.7237 123.576 31.9957 124.888H29.4997C29.3397 124.184 28.9717 123.64 28.3957 123.256C27.8357 122.872 27.1637 122.68 26.3797 122.68C25.7397 122.68 25.1477 122.848 24.6037 123.184C24.0597 123.504 23.6197 123.984 23.2837 124.624C22.9637 125.248 22.8037 126.024 22.8037 126.952C22.8037 127.64 22.8997 128.256 23.0917 128.8C23.2837 129.328 23.5397 129.776 23.8597 130.144C24.1957 130.512 24.5797 130.792 25.0117 130.984C25.4437 131.16 25.8997 131.248 26.3797 131.248C26.9077 131.248 27.3797 131.168 27.7957 131.008C28.2277 130.832 28.5877 130.576 28.8757 130.24C29.1797 129.904 29.3877 129.504 29.4997 129.04H31.9957C31.7237 130.32 31.0917 131.352 30.0997 132.136C29.1077 132.904 27.8757 133.288 26.4037 133.288ZM39.5381 133C38.7701 133 38.1061 132.88 37.5461 132.64C36.9861 132.4 36.5541 132 36.2501 131.44C35.9461 130.88 35.7941 130.12 35.7941 129.16V122.944H33.7061V120.904H35.7941L36.0821 117.88H38.1941V120.904H41.6261V122.944H38.1941V129.184C38.1941 129.872 38.3381 130.344 38.6261 130.6C38.9141 130.84 39.4101 130.96 40.1141 130.96H41.5061V133H39.5381ZM48.7126 133.288C47.7686 133.288 46.9446 133.096 46.2406 132.712C45.5526 132.328 45.0166 131.752 44.6326 130.984C44.2646 130.216 44.0806 129.248 44.0806 128.08V120.904H46.4806V127.816C46.4806 128.952 46.7286 129.808 47.2246 130.384C47.7206 130.96 48.4326 131.248 49.3606 131.248C49.9846 131.248 50.5446 131.096 51.0406 130.792C51.5526 130.488 51.9526 130.048 52.2406 129.472C52.5286 128.896 52.6726 128.192 52.6726 127.36V120.904H55.0726V133H52.9366L52.7686 130.936C52.4006 131.672 51.8646 132.248 51.1606 132.664C50.4566 133.08 49.6406 133.288 48.7126 133.288ZM58.3586 133V120.904H60.5186L60.7346 123.184C61.0066 122.64 61.3586 122.184 61.7906 121.816C62.2226 121.432 62.7266 121.136 63.3026 120.928C63.8946 120.72 64.5666 120.616 65.3186 120.616V123.16H64.4546C63.9586 123.16 63.4866 123.224 63.0386 123.352C62.5906 123.464 62.1906 123.664 61.8386 123.952C61.5026 124.24 61.2386 124.632 61.0466 125.128C60.8546 125.624 60.7586 126.24 60.7586 126.976V133H58.3586ZM72.6431 133.288C71.4911 133.288 70.4671 133.024 69.5711 132.496C68.6751 131.968 67.9711 131.232 67.4591 130.288C66.9631 129.344 66.7151 128.248 66.7151 127C66.7151 125.72 66.9631 124.608 67.4591 123.664C67.9711 122.704 68.6751 121.96 69.5711 121.432C70.4671 120.888 71.5071 120.616 72.6911 120.616C73.8751 120.616 74.8911 120.88 75.7391 121.408C76.5871 121.936 77.2431 122.64 77.7071 123.52C78.1711 124.384 78.4031 125.344 78.4031 126.4C78.4031 126.56 78.3951 126.736 78.3791 126.928C78.3791 127.104 78.3711 127.304 78.3551 127.528H68.4671V125.824H76.0031C75.9551 124.816 75.6191 124.032 74.9951 123.472C74.3711 122.896 73.5951 122.608 72.6671 122.608C72.0111 122.608 71.4111 122.76 70.8671 123.064C70.3231 123.352 69.8831 123.784 69.5471 124.36C69.2271 124.92 69.0671 125.632 69.0671 126.496V127.168C69.0671 128.064 69.2271 128.824 69.5471 129.448C69.8831 130.056 70.3231 130.52 70.8671 130.84C71.4111 131.144 72.0031 131.296 72.6431 131.296C73.4111 131.296 74.0431 131.128 74.5391 130.792C75.0351 130.456 75.4031 130 75.6431 129.424H78.0431C77.8351 130.16 77.4831 130.824 76.9871 131.416C76.4911 131.992 75.8751 132.448 75.1391 132.784C74.4191 133.12 73.5871 133.288 72.6431 133.288ZM85.7495 133.288C84.7255 133.288 83.8295 133.12 83.0615 132.784C82.2935 132.448 81.6855 131.976 81.2375 131.368C80.7895 130.76 80.5175 130.048 80.4215 129.232H82.8695C82.9495 129.616 83.1015 129.968 83.3255 130.288C83.5655 130.608 83.8855 130.864 84.2855 131.056C84.7015 131.248 85.1895 131.344 85.7495 131.344C86.2775 131.344 86.7095 131.272 87.0455 131.128C87.3975 130.968 87.6535 130.76 87.8135 130.504C87.9735 130.232 88.0535 129.944 88.0535 129.64C88.0535 129.192 87.9415 128.856 87.7175 128.632C87.5095 128.392 87.1895 128.208 86.7575 128.08C86.3415 127.936 85.8375 127.808 85.2455 127.696C84.6855 127.6 84.1415 127.472 83.6135 127.312C83.1015 127.136 82.6375 126.92 82.2215 126.664C81.8215 126.408 81.5015 126.088 81.2615 125.704C81.0215 125.304 80.9015 124.816 80.9015 124.24C80.9015 123.552 81.0855 122.936 81.4535 122.392C81.8215 121.832 82.3415 121.4 83.0135 121.096C83.7015 120.776 84.5095 120.616 85.4375 120.616C86.7815 120.616 87.8615 120.936 88.6775 121.576C89.4935 122.216 89.9735 123.12 90.1175 124.288H87.7895C87.7255 123.744 87.4855 123.328 87.0695 123.04C86.6535 122.736 86.1015 122.584 85.4135 122.584C84.7255 122.584 84.1975 122.72 83.8295 122.992C83.4615 123.264 83.2775 123.624 83.2775 124.072C83.2775 124.36 83.3815 124.616 83.5895 124.84C83.7975 125.064 84.1015 125.256 84.5015 125.416C84.9175 125.56 85.4215 125.696 86.0135 125.824C86.8615 125.984 87.6215 126.184 88.2935 126.424C88.9655 126.664 89.5015 127.016 89.9015 127.48C90.3015 127.944 90.5015 128.608 90.5015 129.472C90.5175 130.224 90.3255 130.888 89.9255 131.464C89.5415 132.04 88.9895 132.488 88.2695 132.808C87.5655 133.128 86.7255 133.288 85.7495 133.288ZM100.116 133V119.272C100.116 118.44 100.252 117.76 100.524 117.232C100.812 116.704 101.228 116.32 101.772 116.08C102.316 115.84 102.972 115.72 103.74 115.72H105.156V117.76H104.124C103.548 117.76 103.132 117.88 102.876 118.12C102.636 118.344 102.516 118.744 102.516 119.32V133H100.116ZM98.3399 122.944V120.904H105.42V122.944H98.3399ZM107.859 133V120.904H110.019L110.235 123.184C110.507 122.64 110.859 122.184 111.291 121.816C111.723 121.432 112.227 121.136 112.803 120.928C113.395 120.72 114.067 120.616 114.819 120.616V123.16H113.955C113.459 123.16 112.987 123.224 112.539 123.352C112.091 123.464 111.691 123.664 111.339 123.952C111.003 124.24 110.739 124.632 110.547 125.128C110.355 125.624 110.259 126.24 110.259 126.976V133H107.859ZM122.191 133.288C121.055 133.288 120.031 133.024 119.119 132.496C118.223 131.968 117.511 131.232 116.983 130.288C116.471 129.328 116.215 128.224 116.215 126.976C116.215 125.696 116.479 124.584 117.007 123.64C117.535 122.68 118.255 121.936 119.167 121.408C120.079 120.88 121.103 120.616 122.239 120.616C123.391 120.616 124.415 120.88 125.311 121.408C126.207 121.936 126.911 122.672 127.423 123.616C127.951 124.56 128.215 125.672 128.215 126.952C128.215 128.232 127.951 129.344 127.423 130.288C126.911 131.232 126.199 131.968 125.287 132.496C124.375 133.024 123.343 133.288 122.191 133.288ZM122.191 131.224C122.847 131.224 123.439 131.064 123.967 130.744C124.511 130.424 124.943 129.952 125.263 129.328C125.599 128.688 125.767 127.896 125.767 126.952C125.767 126.008 125.607 125.224 125.287 124.6C124.967 123.96 124.535 123.48 123.991 123.16C123.463 122.84 122.879 122.68 122.239 122.68C121.599 122.68 121.007 122.84 120.463 123.16C119.919 123.48 119.479 123.96 119.143 124.6C118.823 125.224 118.663 126.008 118.663 126.952C118.663 127.896 118.823 128.688 119.143 129.328C119.479 129.952 119.911 130.424 120.439 130.744C120.983 131.064 121.567 131.224 122.191 131.224ZM131.038 133V120.904H133.198L133.366 122.608C133.75 121.984 134.262 121.496 134.902 121.144C135.542 120.792 136.262 120.616 137.062 120.616C137.67 120.616 138.222 120.704 138.718 120.88C139.214 121.04 139.654 121.288 140.038 121.624C140.422 121.96 140.734 122.376 140.974 122.872C141.406 122.168 141.982 121.616 142.702 121.216C143.438 120.816 144.214 120.616 145.03 120.616C146.006 120.616 146.846 120.816 147.55 121.216C148.254 121.6 148.79 122.184 149.158 122.968C149.526 123.736 149.71 124.696 149.71 125.848V133H147.334V126.088C147.334 124.968 147.102 124.12 146.638 123.544C146.19 122.968 145.526 122.68 144.646 122.68C144.054 122.68 143.526 122.832 143.062 123.136C142.598 123.44 142.23 123.88 141.958 124.456C141.702 125.032 141.574 125.736 141.574 126.568V133H139.174V126.088C139.174 124.968 138.942 124.12 138.478 123.544C138.03 122.968 137.366 122.68 136.486 122.68C135.926 122.68 135.414 122.832 134.95 123.136C134.486 123.44 134.118 123.88 133.846 124.456C133.574 125.032 133.438 125.736 133.438 126.568V133H131.038ZM163.944 133C163.176 133 162.512 132.88 161.952 132.64C161.392 132.4 160.96 132 160.656 131.44C160.352 130.88 160.2 130.12 160.2 129.16V122.944H158.112V120.904H160.2L160.488 117.88H162.6V120.904H166.032V122.944H162.6V129.184C162.6 129.872 162.744 130.344 163.032 130.6C163.32 130.84 163.816 130.96 164.52 130.96H165.912V133H163.944ZM168.679 133V115.72H171.079V122.872C171.479 122.168 172.031 121.616 172.735 121.216C173.455 120.816 174.247 120.616 175.111 120.616C176.071 120.616 176.895 120.816 177.583 121.216C178.271 121.6 178.799 122.184 179.167 122.968C179.535 123.736 179.719 124.704 179.719 125.872V133H177.343V126.112C177.343 124.992 177.103 124.144 176.623 123.568C176.143 122.976 175.431 122.68 174.487 122.68C173.847 122.68 173.271 122.832 172.759 123.136C172.247 123.44 171.839 123.888 171.535 124.48C171.231 125.056 171.079 125.76 171.079 126.592V133H168.679ZM188.26 133.288C187.108 133.288 186.084 133.024 185.188 132.496C184.292 131.968 183.588 131.232 183.076 130.288C182.58 129.344 182.332 128.248 182.332 127C182.332 125.72 182.58 124.608 183.076 123.664C183.588 122.704 184.292 121.96 185.188 121.432C186.084 120.888 187.124 120.616 188.308 120.616C189.492 120.616 190.508 120.88 191.356 121.408C192.204 121.936 192.86 122.64 193.324 123.52C193.788 124.384 194.02 125.344 194.02 126.4C194.02 126.56 194.012 126.736 193.996 126.928C193.996 127.104 193.988 127.304 193.972 127.528H184.084V125.824H191.62C191.572 124.816 191.236 124.032 190.612 123.472C189.988 122.896 189.212 122.608 188.284 122.608C187.628 122.608 187.028 122.76 186.484 123.064C185.94 123.352 185.5 123.784 185.164 124.36C184.844 124.92 184.684 125.632 184.684 126.496V127.168C184.684 128.064 184.844 128.824 185.164 129.448C185.5 130.056 185.94 130.52 186.484 130.84C187.028 131.144 187.62 131.296 188.26 131.296C189.028 131.296 189.66 131.128 190.156 130.792C190.652 130.456 191.02 130 191.26 129.424H193.66C193.452 130.16 193.1 130.824 192.604 131.416C192.108 131.992 191.492 132.448 190.756 132.784C190.036 133.12 189.204 133.288 188.26 133.288ZM209.136 133V120.904H211.536V133H209.136ZM210.36 118.624C209.896 118.624 209.512 118.48 209.208 118.192C208.92 117.904 208.776 117.536 208.776 117.088C208.776 116.656 208.92 116.304 209.208 116.032C209.512 115.744 209.896 115.6 210.36 115.6C210.808 115.6 211.184 115.744 211.488 116.032C211.792 116.304 211.944 116.656 211.944 117.088C211.944 117.536 211.792 117.904 211.488 118.192C211.184 118.48 210.808 118.624 210.36 118.624ZM214.968 133V120.904H217.128L217.272 122.968C217.656 122.248 218.2 121.68 218.904 121.264C219.608 120.832 220.416 120.616 221.328 120.616C222.288 120.616 223.112 120.808 223.8 121.192C224.488 121.576 225.024 122.16 225.408 122.944C225.792 123.712 225.984 124.68 225.984 125.848V133H223.584V126.088C223.584 124.968 223.336 124.12 222.84 123.544C222.344 122.968 221.624 122.68 220.68 122.68C220.056 122.68 219.496 122.832 219 123.136C218.504 123.424 218.104 123.856 217.8 124.432C217.512 125.008 217.368 125.712 217.368 126.544V133H214.968ZM234.046 133C233.278 133 232.614 132.88 232.054 132.64C231.494 132.4 231.062 132 230.758 131.44C230.454 130.88 230.302 130.12 230.302 129.16V122.944H228.214V120.904H230.302L230.59 117.88H232.702V120.904H236.134V122.944H232.702V129.184C232.702 129.872 232.846 130.344 233.134 130.6C233.422 130.84 233.918 130.96 234.622 130.96H236.014V133H234.046ZM243.924 133.288C242.772 133.288 241.748 133.024 240.852 132.496C239.956 131.968 239.252 131.232 238.74 130.288C238.244 129.344 237.996 128.248 237.996 127C237.996 125.72 238.244 124.608 238.74 123.664C239.252 122.704 239.956 121.96 240.852 121.432C241.748 120.888 242.788 120.616 243.972 120.616C245.156 120.616 246.172 120.88 247.02 121.408C247.868 121.936 248.524 122.64 248.988 123.52C249.452 124.384 249.684 125.344 249.684 126.4C249.684 126.56 249.676 126.736 249.66 126.928C249.66 127.104 249.652 127.304 249.636 127.528H239.748V125.824H247.284C247.236 124.816 246.9 124.032 246.276 123.472C245.652 122.896 244.876 122.608 243.948 122.608C243.292 122.608 242.692 122.76 242.148 123.064C241.604 123.352 241.164 123.784 240.828 124.36C240.508 124.92 240.348 125.632 240.348 126.496V127.168C240.348 128.064 240.508 128.824 240.828 129.448C241.164 130.056 241.604 130.52 242.148 130.84C242.692 131.144 243.284 131.296 243.924 131.296C244.692 131.296 245.324 131.128 245.82 130.792C246.316 130.456 246.684 130 246.924 129.424H249.324C249.116 130.16 248.764 130.824 248.268 131.416C247.772 131.992 247.156 132.448 246.42 132.784C245.7 133.12 244.868 133.288 243.924 133.288ZM252.351 133V120.904H254.511L254.727 123.184C254.999 122.64 255.351 122.184 255.783 121.816C256.215 121.432 256.719 121.136 257.295 120.928C257.887 120.72 258.559 120.616 259.311 120.616V123.16H258.447C257.951 123.16 257.479 123.224 257.031 123.352C256.583 123.464 256.183 123.664 255.831 123.952C255.495 124.24 255.231 124.632 255.039 125.128C254.847 125.624 254.751 126.24 254.751 126.976V133H252.351ZM261.683 133V120.904H264.083V133H261.683ZM262.907 118.624C262.443 118.624 262.059 118.48 261.755 118.192C261.467 117.904 261.323 117.536 261.323 117.088C261.323 116.656 261.467 116.304 261.755 116.032C262.059 115.744 262.443 115.6 262.907 115.6C263.355 115.6 263.731 115.744 264.035 116.032C264.339 116.304 264.491 116.656 264.491 117.088C264.491 117.536 264.339 117.904 264.035 118.192C263.731 118.48 263.355 118.624 262.907 118.624ZM273.035 133.288C271.899 133.288 270.875 133.024 269.963 132.496C269.067 131.968 268.355 131.232 267.827 130.288C267.315 129.328 267.059 128.224 267.059 126.976C267.059 125.696 267.323 124.584 267.851 123.64C268.379 122.68 269.099 121.936 270.011 121.408C270.923 120.88 271.947 120.616 273.083 120.616C274.235 120.616 275.259 120.88 276.155 121.408C277.051 121.936 277.755 122.672 278.267 123.616C278.795 124.56 279.059 125.672 279.059 126.952C279.059 128.232 278.795 129.344 278.267 130.288C277.755 131.232 277.043 131.968 276.131 132.496C275.219 133.024 274.187 133.288 273.035 133.288ZM273.035 131.224C273.691 131.224 274.283 131.064 274.811 130.744C275.355 130.424 275.787 129.952 276.107 129.328C276.443 128.688 276.611 127.896 276.611 126.952C276.611 126.008 276.451 125.224 276.131 124.6C275.811 123.96 275.379 123.48 274.835 123.16C274.307 122.84 273.723 122.68 273.083 122.68C272.443 122.68 271.851 122.84 271.307 123.16C270.763 123.48 270.323 123.96 269.987 124.6C269.667 125.224 269.507 126.008 269.507 126.952C269.507 127.896 269.667 128.688 269.987 129.328C270.323 129.952 270.755 130.424 271.283 130.744C271.827 131.064 272.411 131.224 273.035 131.224ZM281.882 133V120.904H284.042L284.258 123.184C284.53 122.64 284.882 122.184 285.314 121.816C285.746 121.432 286.25 121.136 286.826 120.928C287.418 120.72 288.09 120.616 288.842 120.616V123.16H287.978C287.482 123.16 287.01 123.224 286.562 123.352C286.114 123.464 285.714 123.664 285.362 123.952C285.026 124.24 284.762 124.632 284.57 125.128C284.378 125.624 284.282 126.24 284.282 126.976V133H281.882Z" fill="#1E1E1E"/>
</svg>
