<svg xmlns="http://www.w3.org/2000/svg" version="1.1" xmlns:xlink="http://www.w3.org/1999/xlink" width="512" height="512" x="0" y="0" viewBox="0 0 1000 1000" style="enable-background:new 0 0 512 512" xml:space="preserve" class=""><g><path d="M496.28 478.6h-25.72c-2.05 0-3.72-1.66-3.72-3.72s1.66-3.72 3.72-3.72h25.72c2.05 0 3.72 1.66 3.72 3.72s-1.66 3.72-3.72 3.72z" fill="#000000" opacity="1" data-original="#000000" class=""></path><path d="M440 327.43c32.23 0 58.79 2.17 76.81 6.28 45.21 10.29 117.24 71.6 140.92 91.75 2.68 2.28 4.8 4.09 6.2 5.23 1.38 1.14 2.14 1.73 2.18 1.76l1.77 1.38 2.23.17c.28.02 28.24 2.16 53.3 3.84.39.07.8.12 1.23.14 8.55.62 16.81 1.14 23.46 1.56l4.78.3c16.14.92 71.02 5.55 99.6 26.76 4.15 3.1 7.71 6.81 10.57 11.03l.02.04.02.04c5.99 8.63 10.1 19.95 12.2 33.62 1.71 11.5 1.71 22.04 1.71 27.7v.67c0 2.83-.31 6.53-.95 11.33-1.81 13.97-5.83 31.22-7.47 37.99l-.01.05-.01.05c-.86 3.78-4.21 6.43-8.14 6.43h-38.47c-1.21-16.37-6.4-32.09-15.17-45.81-18.45-29.29-50.09-46.77-84.65-46.77-35.06 0-67.96 18.73-85.82 48.85a99.333 99.333 0 0 0-13.92 43.74H377.3c-3.82-51.69-47.13-92.58-99.82-92.58-52.65 0-95.93 40.89-99.75 92.58h-3.12l-46.37-50.08c-3.39-3.67-5.26-8.42-5.26-13.38V429.62c0-.6.06-1.23.12-1.95.46-4.86 2.67-9.3 6.25-12.55 10.52-9.65 30.72-27.76 47.87-40.66l6.35-4.77-5.18-6.02c-.64-.74-2.29-2.56-4.95-5.43l96.93-17.2c1.13-.15 2.24-.3 3.35-.45 1.13-.15 2.26-.31 3.45-.47 59.74-8.3 116.03-12.69 162.83-12.69zm-.01-7.44c-45.7 0-102.52 4.24-163.83 12.77-2.33.31-4.59.62-6.92.93l-106.6 18.91c-1.7.3-2.39 2.36-1.22 3.62 3.71 3.98 10.04 10.78 11.34 12.29-16.95 12.75-37.16 30.78-48.43 41.12-4.98 4.51-8.01 10.73-8.63 17.33-.08.85-.16 1.71-.16 2.64v102.46c0 6.84 2.57 13.37 7.23 18.42l48.58 52.47h7.31c3.37 0 6.19-2.6 6.41-5.97 3.08-48.3 43.33-86.62 92.39-86.62 49.03 0 89.31 38.25 92.46 86.49.22 3.43 3.1 6.09 6.54 6.09h246.73a6.55 6.55 0 0 0 6.54-6.11c.99-15.02 5.6-29.03 12.94-41.23 16.09-27.13 45.71-45.24 79.45-45.24 32.96 0 61.96 17.26 78.36 43.3 8.09 12.65 13.1 27.45 14.11 43.31.21 3.37 3.04 5.97 6.41 5.97h39.41c7.38 0 13.76-5.05 15.39-12.21 2.57-10.57 5.99-26.2 7.62-38.79.62-4.66 1.01-8.86 1.01-12.28 0-5.75.08-16.95-1.79-29.46-1.87-12.13-5.67-25.58-13.45-36.77a53.472 53.472 0 0 0-12.28-12.83c-28.3-20.99-78.98-26.82-103.62-28.22-7.31-.47-17.57-1.09-28.3-1.87-.16 0-.31 0-.39-.08-25.5-1.71-53.95-3.89-53.95-3.89s-.7-.54-2.02-1.63c-13.45-11.04-97.95-86.6-150.19-98.49-18.86-4.26-45.81-6.43-78.45-6.43z" fill="#000000" opacity="1" data-original="#000000" class=""></path><path d="m151.47 433.07 20.2 1.37c-6.09 8.02-15.45 10.94-22.18 11.98zm-4.81-7.78c-.88 0-1.64.65-1.78 1.53l-3.8 25.52c-.16 1.09.69 2.06 1.79 2.06h.02c7.23-.06 31.11-2.01 39.58-24.33.43-1.13-.35-2.37-1.56-2.45l-34.13-2.32c-.04-.01-.08-.01-.12-.01zM784.47 467.6c22.7 3.01 39.8 8.04 46.14 10.07l3.41 9.23h-9.29zm-32.85-9.8c-1.15 0-1.52 1.57-.48 2.07L822 493.84c.68.33 1.42.49 2.17.49h18.95c.76 0 1.28-.75 1.02-1.46l-7.16-19.39c-.4-1.1-1.28-1.95-2.39-2.32-7.85-2.64-41.2-12.98-82.96-13.36zM277.48 533.37c38.42 0 69.68 31.22 69.68 69.6s-31.26 69.6-69.68 69.6c-38.38 0-69.6-31.22-69.6-69.6s31.22-69.6 69.6-69.6zm0-7.44c-42.52 0-77.04 34.44-77.04 77.04 0 42.52 34.51 77.04 77.04 77.04 42.6 0 77.11-34.51 77.11-77.04 0-42.6-34.51-77.04-77.11-77.04z" fill="#000000" opacity="1" data-original="#000000" class=""></path><path d="M277.51 582.86c11.08 0 20.1 9.02 20.1 20.1s-9.02 20.1-20.1 20.1-20.1-9.02-20.1-20.1c-.01-11.08 9.01-20.1 20.1-20.1zm0-7.43c-15.21 0-27.54 12.33-27.54 27.54s12.33 27.54 27.54 27.54 27.54-12.33 27.54-27.54c-.01-15.21-12.33-27.54-27.54-27.54zM722.13 533.37c21.04 0 40.7 9.32 53.95 25.57 10.29 12.57 15.73 27.8 15.73 44.03 0 38.38-31.26 69.6-69.68 69.6-38.38 0-69.6-31.22-69.6-69.6 0-15.44 5.19-30.6 14.59-42.69 13.36-17.1 33.41-26.91 55.01-26.91zm0-7.44c-24.72 0-46.72 11.66-60.87 29.77-10.11 12.98-16.17 29.46-16.17 47.26 0 42.52 34.51 77.04 77.04 77.04 42.6 0 77.11-34.51 77.11-77.04 0-18.5-6.53-35.45-17.41-48.74-14.07-17.25-35.6-28.29-59.7-28.29z" fill="#000000" opacity="1" data-original="#000000" class=""></path><path d="M722.16 582.86c11.08 0 20.1 9.02 20.1 20.1s-9.02 20.1-20.1 20.1-20.1-9.02-20.1-20.1 9.01-20.1 20.1-20.1zm0-7.43c-15.21 0-27.54 12.33-27.54 27.54s12.33 27.54 27.54 27.54 27.54-12.33 27.54-27.54-12.33-27.54-27.54-27.54zM445.01 354c9.49.25 18.34.72 26.39 1.4 12.88 1.06 24.06 2.69 33.23 4.84 37.74 8.92 90.99 47.77 119.99 70.67l-101.55-10.76-71.52-7.58zm-6.45-7.57c-1 0-1.78.87-1.67 1.86l7.79 69.72c.08.78.7 1.38 1.48 1.46l76.13 8.07 120.98 12.82c.07.01.14.01.2.01 1.5 0 2.24-1.93 1.03-2.93-20.89-17.39-90.66-73.2-138.15-84.43-9.48-2.23-21.02-3.92-34.33-5.02-10.16-.86-21.36-1.38-33.43-1.56h-.03zM410.3 354.02l4.85 55.46-75.19-7.72-60.02-6.16-18.33-27.84c14.87-2.22 29.61-4.19 43.93-5.87 37.78-4.47 72.99-7.11 104.76-7.87zm5.25-7.54c-32.7.56-70.4 3.24-110.89 8.02-17.24 2.03-34.99 4.45-53.08 7.26a1.67 1.67 0 0 0-1.15 2.56l24.79 37.66c.27.42.71.68 1.21.73l62.74 6.44 82.14 8.44c.05.01.11.01.16.01.96 0 1.74-.83 1.66-1.82l-5.93-67.77c-.03-.87-.77-1.53-1.65-1.53z" fill="#000000" opacity="1" data-original="#000000" class=""></path></g></svg>