<svg xmlns="http://www.w3.org/2000/svg" width="101" height="43" viewBox="0 0 101 43" fill="none">
  <path d="M19.0272 26.4795C17.7215 26.4795 16.4451 26.8666 15.3595 27.592C14.2739 28.3174 13.4278 29.3484 12.9281 30.5547C12.4284 31.761 12.2977 33.0883 12.5524 34.3689C12.8072 35.6495 13.4359 36.8258 14.3591 37.749C15.2824 38.6723 16.4587 39.301 17.7393 39.5557C19.0198 39.8105 20.3472 39.6797 21.5535 39.1801C22.7597 38.6804 23.7908 37.8343 24.5162 36.7486C25.2415 35.663 25.6287 34.3867 25.6287 33.081C25.6269 31.3307 24.9308 29.6526 23.6932 28.415C22.4555 27.1774 20.7774 26.4813 19.0272 26.4795ZM23.9734 30.8138L21.1143 31.6613C20.8537 31.2716 20.4884 30.9633 20.0604 30.7719C19.6324 30.5805 19.1591 30.5137 18.6949 30.5793L17.8594 27.7642C19.0734 27.4966 20.3424 27.6533 21.4548 28.2081C22.5673 28.7629 23.456 29.6822 23.9727 30.8129L23.9734 30.8138ZM19.0272 34.4466C18.7567 34.4468 18.4923 34.3668 18.2673 34.2167C18.0424 34.0666 17.867 33.8531 17.7633 33.6033C17.6597 33.3535 17.6325 33.0786 17.6851 32.8133C17.7378 32.5481 17.8679 32.3044 18.0591 32.1131C18.2503 31.9217 18.4939 31.7914 18.7591 31.7386C19.0243 31.6858 19.2993 31.7128 19.5492 31.8162C19.799 31.9197 20.0126 32.0949 20.1629 32.3198C20.3132 32.5446 20.3934 32.809 20.3934 33.0795C20.3934 33.4419 20.2495 33.7895 19.9933 34.0459C19.7371 34.3022 19.3896 34.4464 19.0272 34.4466ZM16.7607 28.1339L17.6092 30.9929C17.2194 31.2535 16.9111 31.6188 16.7197 32.0469C16.5282 32.4749 16.4614 32.9482 16.527 33.4125L13.7119 34.2478C13.4446 33.0338 13.6013 31.7649 14.1561 30.6524C14.7109 29.54 15.6302 28.6513 16.7607 28.1345V28.1339ZM14.0811 35.3466L16.9402 34.4982C17.2008 34.888 17.5661 35.1963 17.994 35.3877C18.422 35.5792 18.8953 35.646 19.3596 35.5804L20.1951 38.3955C18.9811 38.6628 17.7122 38.506 16.5998 37.9512C15.4874 37.3964 14.5987 36.4772 14.0818 35.3466H14.0811ZM21.2938 38.0267L20.4453 35.1675C20.8351 34.9069 21.1434 34.5416 21.3349 34.1136C21.5263 33.6856 21.5931 33.2123 21.5275 32.748L24.3426 31.9127C24.6101 33.1267 24.4535 34.3957 23.8986 35.5082C23.3438 36.6206 22.4244 37.5093 21.2938 38.0259V38.0267ZM82.9756 26.4795C81.6699 26.4795 80.3936 26.8666 79.308 27.592C78.2223 28.3174 77.3762 29.3484 76.8765 30.5547C76.3769 31.761 76.2462 33.0883 76.5009 34.3689C76.7556 35.6495 77.3843 36.8258 78.3076 37.749C79.2308 38.6723 80.4071 39.301 81.6877 39.5557C82.9683 39.8105 84.2956 39.6797 85.5019 39.1801C86.7082 38.6804 87.7392 37.8343 88.4646 36.7486C89.19 35.663 89.5772 34.3867 89.5772 33.081C89.5754 31.3306 88.8793 29.6525 87.6415 28.4148C86.4038 27.1771 84.7256 26.4811 82.9752 26.4795H82.9756ZM87.9219 30.8138L85.0625 31.6613C84.8019 31.2716 84.4365 30.9633 84.0085 30.7719C83.5805 30.5805 83.1072 30.5137 82.643 30.5793L81.8076 27.7642C83.0216 27.4966 84.2906 27.6533 85.4031 28.208C86.5156 28.7628 87.4042 29.6822 87.9209 30.8129L87.9219 30.8138ZM82.9756 34.4466C82.7052 34.4466 82.4409 34.3665 82.216 34.2162C81.9912 34.066 81.816 33.8525 81.7125 33.6027C81.609 33.3528 81.5819 33.0779 81.6347 32.8127C81.6874 32.5475 81.8176 32.3039 82.0088 32.1127C82.2001 31.9215 82.4437 31.7913 82.7089 31.7385C82.9741 31.6858 83.249 31.7129 83.4988 31.8163C83.7486 31.9198 83.9621 32.0951 84.1124 32.3199C84.2626 32.5447 84.3428 32.8091 84.3428 33.0795C84.3428 33.259 84.3074 33.4368 84.2387 33.6027C84.1699 33.7686 84.0692 33.9194 83.9422 34.0463C83.8152 34.1733 83.6644 34.274 83.4985 34.3427C83.3326 34.4114 83.1548 34.4467 82.9752 34.4466H82.9756ZM80.71 28.1339L81.5584 30.9929C81.2176 31.2242 80.9386 31.5353 80.7457 31.8991C80.5528 32.2629 80.4519 32.6684 80.4518 33.0802C80.4527 33.1913 80.4608 33.3022 80.4762 33.4123L77.6613 34.2476C77.3937 33.0336 77.5504 31.7646 78.1051 30.6521C78.6599 29.5397 79.5793 28.651 80.71 28.1343V28.1339ZM78.0301 35.3466L80.8891 34.4982C81.1497 34.888 81.515 35.1963 81.943 35.3877C82.371 35.5792 82.8443 35.646 83.3086 35.5804L84.144 38.3955C82.93 38.6628 81.661 38.5061 80.5486 37.9513C79.4362 37.3965 78.5475 36.4772 78.0307 35.3466H78.0301ZM85.2428 38.0265L84.3936 35.1675C84.7836 34.9072 85.0921 34.5419 85.2835 34.1138C85.475 33.6858 85.5417 33.2123 85.4758 32.748L88.2908 31.9127C88.5584 33.1266 88.4018 34.3957 87.847 35.5081C87.2922 36.6206 86.3729 37.5093 85.2422 38.0259L85.2428 38.0265ZM92.4014 16.2765L71.4774 13.5115L57.8537 3.0611C57.839 3.04975 57.8238 3.03919 57.808 3.02946C55.3043 1.47224 52.3997 0.681499 49.4522 0.754653H16.9012C13.6004 0.825942 11.5262 3.29371 9.5211 5.67848C8.97676 6.32633 8.41387 6.99606 7.83555 7.60602C7.82637 7.61559 7.81758 7.62555 7.80899 7.6359L2.31173 14.3009C0.0445376 16.9369 0.441999 20.4763 0.476764 20.7504L1.17989 28.0386C1.06036 28.7791 0.469538 32.8605 1.54942 33.5908C2.39063 34.1599 8.15958 35.6947 9.69766 36.0894C10.3177 38.0135 11.5176 39.6987 13.1328 40.9143C14.748 42.1299 16.6995 42.8163 18.7201 42.8795C20.7406 42.9426 22.7312 42.3795 24.4192 41.2672C26.1072 40.1549 27.41 38.5479 28.149 36.6664L73.8002 36.531C74.5086 38.4158 75.7802 40.0368 77.4423 41.1734C79.1043 42.3101 81.0761 42.9072 83.0895 42.8838C85.1029 42.8603 87.0602 42.2173 88.6953 41.0422C90.3304 39.8671 91.5639 38.217 92.2281 36.3162H97.115C97.9937 36.3151 98.836 35.9656 99.4572 35.3443C100.078 34.7229 100.428 33.8805 100.429 33.0019V25.4339C100.423 23.1953 99.6068 21.0344 98.1311 19.351C96.6554 17.6675 94.62 16.5754 92.4014 16.2765ZM98.7963 22.7218C95.7756 21.792 93.5121 21.0273 92.2207 20.4988C89.91 19.5537 89.2424 17.9152 89.0498 17.0027L92.2496 17.4256C93.7213 17.6239 95.1102 18.2226 96.2647 19.1565C97.4192 20.0904 98.295 21.3235 98.7965 22.7213L98.7963 22.7218ZM8.69044 8.38825C9.28731 7.75739 9.85704 7.07965 10.4092 6.42379C12.333 4.13473 14.1502 1.97262 16.915 1.91207H49.4643C52.1812 1.84321 54.8593 2.56759 57.1711 3.99665L70.5305 14.2433C70.0889 14.8367 68.9426 15.0759 68.3262 15.1382L66.8273 13.9324C66.8125 13.7202 66.7153 13.5223 66.5564 13.3808C66.3976 13.2487 66.2056 13.1625 66.0014 13.1314C66.0022 12.627 65.9251 12.1255 65.7729 11.6447C65.4287 10.4787 63.5055 10.0605 61.8508 9.9609L55.7971 5.32907C55.7825 5.31796 55.7675 5.30754 55.752 5.29782C53.1713 3.6859 50.2051 3.52047 47.3957 3.58063H21.3C20.6129 3.58099 19.9361 3.74769 19.3274 4.06648C18.7187 4.38528 18.1963 4.84669 17.8047 5.41129L12.0965 13.2754C11.912 13.4814 11.7908 13.7362 11.7471 14.0092C11.7035 14.2823 11.7394 14.5622 11.8504 14.8154C11.9615 15.0687 12.1431 15.2847 12.3735 15.4376C12.6039 15.5904 12.8735 15.6738 13.15 15.6777L18.5893 15.7531C18.3672 17.1748 18.2856 19.683 19.2797 23.2826C19.1955 23.2804 19.1119 23.2763 19.0272 23.2763C17.0551 23.2787 15.1295 23.8749 13.5011 24.9873C11.8728 26.0997 10.6172 27.6767 9.89786 29.5129L2.3002 27.5927L1.75899 21.9789C1.89883 22.1425 2.03458 22.3072 2.1459 22.4422C2.91661 23.3777 3.58243 24.1857 4.28751 24.2093H4.31876C4.44475 24.2094 4.5694 24.1835 4.68486 24.1331C4.80032 24.0826 4.9041 24.0089 4.98965 23.9164C5.72735 23.1332 5.85391 21.9224 5.9879 20.6408C6.09337 19.6312 6.20274 18.5875 6.60059 17.633L7.1295 16.2945C7.13458 16.2818 7.13927 16.2689 7.14337 16.2554C7.47344 15.2078 7.4127 14.3654 6.9627 13.7517C6.50587 13.1289 5.75587 12.889 5.05508 12.7959L8.69044 8.38825ZM68.3316 35.389L45.8988 35.4554C45.9111 34.8757 45.865 34.0297 45.5561 33.4195C45.3585 32.9585 45.2446 32.466 45.2197 31.965L62.3363 31.9416C62.4899 31.9416 62.6372 31.8806 62.7458 31.772C62.8544 31.6633 62.9154 31.5161 62.9154 31.3625C62.9154 31.2089 62.8544 31.0616 62.7458 30.953C62.6372 30.8444 62.4899 30.7834 62.3363 30.7834L45.2414 30.8068C45.5764 21.9091 44.5031 17.7576 43.8547 16.1033L58.6846 16.3097C59.4215 17.1068 60.9346 16.8888 62.0504 16.7257C62.2314 16.6994 62.4555 16.6672 62.6201 16.65C62.7227 16.8003 62.8582 16.9254 63.0162 17.0158C63.2837 17.1636 63.5859 17.2373 63.8914 17.2293C64.293 17.2201 64.6897 17.1399 65.0633 16.9923C65.89 16.6873 66.3502 15.9324 66.5936 15.2326L67.7024 16.1248C67.9022 16.4631 68.8848 18.3357 69.1299 22.7849C69.3824 27.3687 68.5793 33.6144 68.3316 35.389ZM18.8518 14.5984L13.1664 14.5203C13.1114 14.5195 13.0578 14.5027 13.0122 14.472C12.9666 14.4412 12.9309 14.3978 12.9096 14.3471C12.8882 14.2964 12.8821 14.2405 12.892 14.1864C12.9019 14.1323 12.9273 14.0822 12.9652 14.0423C12.9828 14.0239 12.9991 14.0044 13.0141 13.9838L18.742 6.09137C19.1792 5.44014 19.8529 4.98478 20.6201 4.82184L18.9106 14.4287C18.8955 14.4677 18.875 14.5259 18.8518 14.5984ZM21.8109 4.73981H39.975L39.1102 14.8795L20.0539 14.6152L21.8109 4.73981ZM41.1375 4.73981H42.3504V14.9244L40.2711 14.8955L41.1375 4.73981ZM44.7217 4.73981L45.5941 14.9693L43.5086 14.9404V4.73961L44.7217 4.73981ZM64.8211 14.0408C64.8858 14.1313 64.9749 14.2014 65.078 14.2432C65.1811 14.2849 65.2939 14.2964 65.4033 14.2763C65.4842 14.2649 65.5658 14.2599 65.6475 14.2613C65.5678 14.7582 65.3082 15.6675 64.6619 15.9052C63.9881 16.1537 63.667 16.0615 63.5902 16.0099C63.4516 15.35 62.7234 15.4562 61.883 15.5791C61.2119 15.6767 59.8152 15.8808 59.5213 15.5127C58.985 14.8412 58.9684 13.2806 59.0074 12.7328C59.0434 12.2933 59.282 11.2939 59.7584 11.1754C60.9863 10.8703 64.4469 11.2472 64.6608 11.9736C64.9381 12.9132 64.8211 13.3722 64.7963 13.4511C64.743 13.5413 64.717 13.6449 64.7214 13.7495C64.7258 13.8542 64.7604 13.9555 64.8211 14.0408ZM59.4789 10.0515C58.0643 10.4031 57.8701 12.416 57.8525 12.6445V12.6463C57.7961 13.4854 57.8742 14.3281 58.0838 15.1425L46.7584 14.9863L45.8844 4.74059H47.4078C50.0412 4.68356 52.7967 4.82985 55.115 6.26774L59.9674 9.98024C59.8031 9.99269 59.6399 10.0166 59.4789 10.0515ZM3.19766 15.047L4.14747 13.8947C4.78165 13.9031 5.68438 13.9656 6.02872 14.4349C6.2463 14.7318 6.25157 15.2201 6.04454 15.8863L5.52735 17.1949C5.06817 18.2972 4.94454 19.4775 4.83575 20.5189C4.72696 21.5603 4.63145 22.4746 4.2463 23.0004C3.94141 22.799 3.38692 22.1261 3.03985 21.7045C2.44258 20.9795 2.01173 20.475 1.59825 20.2447C1.55469 19.3371 1.60684 16.8966 3.19766 15.047ZM2.23673 32.655C1.98399 32.1863 2.0668 30.0023 2.22813 28.7695L9.53692 30.6166C9.1809 31.9877 9.12758 33.42 9.38067 34.8138C6.87891 34.164 2.87012 33.0089 2.23673 32.655ZM19.0272 41.7259C17.3172 41.7259 15.6456 41.2189 14.2239 40.2689C12.8021 39.3189 11.6939 37.9686 11.0396 36.3888C10.3852 34.809 10.214 33.0706 10.5476 31.3935C10.8812 29.7164 11.7046 28.1759 12.9137 26.9668C14.1228 25.7577 15.6634 24.9343 17.3405 24.6007C19.0176 24.2671 20.7559 24.4383 22.3357 25.0927C23.9155 25.747 25.2658 26.8552 26.2158 28.2769C27.1658 29.6987 27.6729 31.3703 27.6729 33.0802C27.6702 35.3724 26.7585 37.5699 25.1377 39.1908C23.5169 40.8116 21.3193 41.7233 19.0272 41.7259ZM20.5145 23.389C19.4012 19.59 19.5447 17.0435 19.765 15.7693L42.584 16.0857C43.0332 17.0199 44.4606 20.825 44.0807 30.8084L35.1916 30.8205C35.0398 30.8233 34.8952 30.8855 34.7889 30.9938C34.6825 31.1021 34.6229 31.2479 34.6229 31.3997C34.6229 31.5515 34.6825 31.6972 34.7889 31.8055C34.8952 31.9138 35.0398 31.9761 35.1916 31.9789L44.0588 31.9666C44.0873 32.6487 44.2446 33.3194 44.5223 33.9431C44.7039 34.3011 44.7506 34.9392 44.7391 35.4589L28.5262 35.507C28.8643 34.1813 28.9214 32.7994 28.6937 31.4504C28.466 30.1013 27.9585 28.8147 27.2039 27.6735C26.4493 26.5322 25.4643 25.5614 24.3121 24.8236C23.1599 24.0857 21.8661 23.597 20.5139 23.389H20.5145ZM69.5025 35.3855C69.7805 33.383 70.5406 27.3343 70.2861 22.7201C70.0938 19.2316 69.4613 17.2084 69.0305 16.2033C69.8703 16.0431 71.0891 15.6513 71.6164 14.6982L87.8506 16.8433C87.9893 17.9041 88.6531 20.2898 91.7832 21.5699C93.2238 22.1591 95.7027 22.9902 99.148 24.0396C99.2297 24.4997 99.2709 24.9661 99.2713 25.4334V30.666H92.4777C91.8434 28.1529 90.2398 25.9933 88.0174 24.6595C85.7951 23.3257 83.135 22.9262 80.619 23.5485C78.1029 24.1707 75.9357 25.764 74.5912 27.9799C73.2468 30.1959 72.8346 32.854 73.4447 35.373L69.5025 35.3855ZM82.9752 41.7259C81.2652 41.7261 79.5936 41.2192 78.1717 40.2693C76.7498 39.3193 75.6415 37.9691 74.9871 36.3893C74.3326 34.8096 74.1612 33.0712 74.4948 31.394C74.8283 29.7169 75.6516 28.1763 76.8607 26.9671C78.0698 25.7579 79.6103 24.9344 81.2874 24.6007C82.9646 24.2671 84.703 24.4382 86.2828 25.0926C87.8626 25.7469 89.213 26.8551 90.163 28.2769C91.113 29.6987 91.6201 31.3702 91.6201 33.0802C91.6175 35.3723 90.7059 37.5697 89.0853 39.1905C87.4646 40.8113 85.2673 41.7231 82.9752 41.7259ZM97.1158 35.1576H92.5557C92.795 34.0632 92.8425 32.9356 92.6961 31.825H99.2705V33.0019C99.2697 33.5734 99.0424 34.1212 98.6383 34.5253C98.2342 34.9293 97.6863 35.1567 97.1148 35.1574L97.1158 35.1576Z" fill="#1E1E1E"/>
</svg>