<svg xmlns="http://www.w3.org/2000/svg" width="25" height="25" viewBox="0 0 25 25" fill="none">
  <g clip-path="url(#clip0_2257_10664)">
    <path d="M0.900381 13.3806C2.18948 9.23302 6.28097 6.40261 11.1851 6.31854V1.47041C11.1851 1.24622 11.3813 1.05005 11.6055 1.05005C11.6896 1.05005 11.7737 1.07807 11.8577 1.13412L24.3284 10.1578C24.5245 10.2979 24.5525 10.5501 24.4124 10.7463L24.3284 10.8304L11.8577 19.798C11.6616 19.9382 11.4093 19.8821 11.2692 19.714C11.2132 19.6299 11.1851 19.5458 11.1851 19.4617V14.6416C8.15857 14.6416 5.60839 16.0709 4.71163 18.2287C3.95498 20.0783 4.57151 22.068 6.36504 23.7214C6.53318 23.8895 6.56121 24.1417 6.39306 24.3099C6.30899 24.3939 6.1969 24.45 6.0848 24.45H5.74851C5.66444 24.45 5.58037 24.422 5.52432 24.3659C1.40481 21.6476 -0.360695 17.416 0.900381 13.3806Z" fill="white"/>
  </g>
  <defs>
    <clipPath id="clip0_2257_10664">
      <rect width="24" height="24" fill="white" transform="matrix(-1 0 0 1 24.5 0.75)"/>
    </clipPath>
  </defs>
</svg>